{
  "accessors": [
    {
      "bufferView": 1,
      "componentType": 5126,
      "count": 16641,
      "max": [
        1.23989999294281,
        0.8497999906539917,
        0.0
      ],
      "min": [
        -0.9840599894523621,
        -1.0,
        -0.38618001341819763
      ],
      "type": "VEC3"
    },
    {
      "bufferView": 1,
      "byteOffset": 199692,
      "componentType": 5126,
      "count": 16641,
      "max": [
        0.8614088296890259,
        0.8510593771934509,
        0.9999988675117493
      ],
      "min": [
        -0.7567871809005737,
        -0.6971795558929443,
        -0.203102245926857
      ],
      "type": "VEC3"
    },
    {
      "bufferView": 0,
      "componentType": 5125,
      "count": 98304,
      "type": "SCALAR"
    },
    {
      "bufferView": 1,
      "byteOffset": 399384,
      "componentType": 5126,
      "count": 2080,
      "max": [
        1.2812000513076782,
        1.2914199829101563,
        1.0302599668502808
      ],
      "min": [
        -1.270259976387024,
        -1.260040044784546,
        -1.0
      ],
      "type": "VEC3"
    },
    {
      "bufferView": 1,
      "byteOffset": 424344,
      "componentType": 5126,
      "count": 2080,
      "max": [
        0.9951844215393066,
        0.9951844215393066,
        1.0
      ],
      "min": [
        -0.9951844215393066,
        -0.9951844215393066,
        -1.0
      ],
      "type": "VEC3"
    },
    {
      "bufferView": 0,
      "byteOffset": 393216,
      "componentType": 5125,
      "count": 3156,
      "type": "SCALAR"
    }
  ],
  "asset": {
    "extras": {
      "author": "YouniqueĪdeaStudio (https://sketchfab.com/sinnervoncrawsz)",
      "license": "CC-BY-4.0 (http://creativecommons.org/licenses/by/4.0/)",
      "source": "https://sketchfab.com/3d-models/flag-in-the-wind-563b39480a6745d599eff1c90a38b47f",
      "title": "flag in the wind"
    },
    "generator": "Sketchfab-12.66.0",
    "version": "2.0"
  },
  "bufferViews": [
    {
      "buffer": 0,
      "byteLength": 405840,
      "name": "floatBufferViews",
      "target": 34963
    },
    {
      "buffer": 0,
      "byteLength": 449304,
      "byteOffset": 405840,
      "byteStride": 12,
      "name": "floatBufferViews",
      "target": 34962
    }
  ],
  "buffers": [
    {
      "byteLength": 855144,
      "uri": "flag.bin"
    }
  ],
  "materials": [
    {
      "doubleSided": true,
      "name": "Root",
      "pbrMetallicRoughness": {
        "baseColorFactor": [
          0.5998585345727661,
          0.5998585345727661,
          0.5998585345727661,
          1.0
        ],
        "metallicFactor": 0.0,
        "roughnessFactor": 0.6
      }
    }
  ],
  "meshes": [
    {
      "name": "steag_0",
      "primitives": [
        {
          "attributes": {
            "NORMAL": 1,
            "POSITION": 0
          },
          "indices": 2,
          "material": 0,
          "mode": 4
        }
      ]
    },
    {
      "name": "stick_0",
      "primitives": [
        {
          "attributes": {
            "NORMAL": 4,
            "POSITION": 3
          },
          "indices": 5,
          "material": 0,
          "mode": 4
        }
      ]
    }
  ],
  "nodes": [
    {
      "children": [
        1
      ],
      "matrix": [
        1.0,
        0.0,
        0.0,
        0.0,
        0.0,
        2.220446049250313e-16,
        -1.0,
        0.0,
        0.0,
        1.0,
        2.220446049250313e-16,
        0.0,
        0.0,
        0.0,
        0.0,
        1.0
      ],
      "name": "Sketchfab_model"
    },
    {
      "children": [
        2,
        4,
        6
      ],
      "name": "Root"
    },
    {
      "children": [
        3
      ],
      "matrix": [
        -0.29086000000000006,
        0.9551700000000001,
        -0.05519000000000001,
        0.0,
        -0.7711,
        -0.19988000000000003,
        0.6045200000000001,
        0.0,
        0.5663900000000001,
        0.21839000000000003,
        0.7946700000000001,
        0.0,
        4.076250000000001,
        1.00545,
        5.903860000000001,
        1.0
      ],
      "name": "Lamp"
    },
    {
      "name": "Lamp"
    },
    {
      "children": [
        5
      ],
      "matrix": [
        -0.0,
        0.0,
        -0.4,
        0.0,
        0.0,
        0.6000000000000001,
        0.0,
        0.0,
        1.0,
        0.0,
        -0.0,
        0.0,
        -0.0003200000000000001,
        0.6029200000000001,
        1.53998,
        1.0
      ],
      "name": "steag"
    },
    {
      "mesh": 0,
      "name": "steag_0"
    },
    {
      "children": [
        7
      ],
      "matrix": [
        0.015680000000000003,
        0.0,
        0.0,
        0.0,
        0.0,
        0.015680000000000003,
        0.0,
        0.0,
        0.0,
        0.0,
        1.0,
        0.0,
        0.0,
        -0.011880000000000003,
        0.98493,
        1.0
      ],
      "name": "stick"
    },
    {
      "mesh": 1,
      "name": "stick_0"
    }
  ],
  "scene": 0,
  "scenes": [
    {
      "name": "Sketchfab_Scene",
      "nodes": [
        0
      ]
    }
  ]
}
